G04 #@! TF.FileFunction,Copper,L2,Bot,Signal*
%FSLAX46Y46*%
G04 Gerber Fmt 4.6, Leading zero omitted, Abs format (unit mm)*
G04 Created by KiCad (PCBNEW 4.0.7) date Friday, July 23, 2021 'PMt' 11:18:56 PM*
%MOMM*%
%LPD*%
G01*
G04 APERTURE LIST*
%ADD10C,0.100000*%
%ADD11C,2.100000*%
%ADD12R,2.100000X2.100000*%
%ADD13R,0.900000X0.800000*%
%ADD14R,1.400000X1.500000*%
%ADD15R,1.500000X1.400000*%
%ADD16C,2.200000*%
%ADD17R,1.550000X0.600000*%
%ADD18C,0.500000*%
%ADD19C,1.000000*%
G04 APERTURE END LIST*
D10*
D11*
X30777452Y-54296487D03*
X28722548Y-52803513D03*
X54507548Y-34092158D03*
X55292452Y-36507842D03*
X49777452Y-52953513D03*
X47722548Y-54446487D03*
X23407548Y-36557842D03*
X24192452Y-34142158D03*
X38130000Y-24000000D03*
X40670000Y-24000000D03*
D12*
X32250000Y-43810000D03*
X32250000Y-36190000D03*
X32250000Y-38730000D03*
X32250000Y-33650000D03*
X32250000Y-41270000D03*
X32250000Y-46350000D03*
D13*
X39400000Y-44400000D03*
X39400000Y-46300000D03*
X37400000Y-45350000D03*
D14*
X51675000Y-36500000D03*
X49625000Y-36500000D03*
D15*
X46150000Y-47275000D03*
X46150000Y-45225000D03*
D10*
G36*
X26412862Y-44209144D02*
X24986278Y-44672669D01*
X24553654Y-43341190D01*
X25980238Y-42877665D01*
X26412862Y-44209144D01*
X26412862Y-44209144D01*
G37*
G36*
X27046346Y-46158810D02*
X25619762Y-46622335D01*
X25187138Y-45290856D01*
X26613722Y-44827331D01*
X27046346Y-46158810D01*
X27046346Y-46158810D01*
G37*
G36*
X52136278Y-44677331D02*
X53562862Y-45140856D01*
X53130238Y-46472335D01*
X51703654Y-46008810D01*
X52136278Y-44677331D01*
X52136278Y-44677331D01*
G37*
G36*
X52769762Y-42727665D02*
X54196346Y-43191190D01*
X53763722Y-44522669D01*
X52337138Y-44059144D01*
X52769762Y-42727665D01*
X52769762Y-42727665D01*
G37*
D14*
X38325000Y-54600000D03*
X40375000Y-54600000D03*
D15*
X38050000Y-49025000D03*
X38050000Y-51075000D03*
D10*
G36*
X31803769Y-29065732D02*
X30922091Y-27852207D01*
X32054715Y-27029308D01*
X32936393Y-28242833D01*
X31803769Y-29065732D01*
X31803769Y-29065732D01*
G37*
G36*
X30145285Y-30270692D02*
X29263607Y-29057167D01*
X30396231Y-28234268D01*
X31277909Y-29447793D01*
X30145285Y-30270692D01*
X30145285Y-30270692D01*
G37*
G36*
X47522091Y-29597793D02*
X48403769Y-28384268D01*
X49536393Y-29207167D01*
X48654715Y-30420692D01*
X47522091Y-29597793D01*
X47522091Y-29597793D01*
G37*
G36*
X45863607Y-28392833D02*
X46745285Y-27179308D01*
X47877909Y-28002207D01*
X46996231Y-29215732D01*
X45863607Y-28392833D01*
X45863607Y-28392833D01*
G37*
D16*
X46090000Y-50000000D03*
X41010000Y-50000000D03*
X43550000Y-44920000D03*
X50240000Y-40460000D03*
X45160000Y-40460000D03*
X45160000Y-32840000D03*
X50240000Y-32840000D03*
D17*
X41850000Y-32145000D03*
X41850000Y-33415000D03*
X41850000Y-34685000D03*
X41850000Y-35955000D03*
X36450000Y-35955000D03*
X36450000Y-34685000D03*
X36450000Y-33415000D03*
X36450000Y-32145000D03*
D14*
X39725000Y-38200000D03*
X41775000Y-38200000D03*
D11*
X34800000Y-50650000D03*
X34850000Y-54400000D03*
X45200000Y-36650000D03*
X47700000Y-34150000D03*
X28200000Y-35050000D03*
X28200000Y-39900000D03*
X49750000Y-43150000D03*
X48600000Y-46900000D03*
D18*
X34800000Y-50650000D02*
X34800000Y-50300000D01*
X35800000Y-46950000D02*
X37400000Y-45350000D01*
X35800000Y-49300000D02*
X35800000Y-46950000D01*
X34800000Y-50300000D02*
X35800000Y-49300000D01*
X37400000Y-45350000D02*
X37400000Y-45400000D01*
X34100000Y-56200000D02*
X34100000Y-55150000D01*
X34100000Y-55150000D02*
X34850000Y-54400000D01*
X54507548Y-34092158D02*
X54507548Y-32757548D01*
X40080000Y-22050000D02*
X38130000Y-24000000D01*
X41600000Y-22050000D02*
X40080000Y-22050000D01*
X44600000Y-25050000D02*
X41600000Y-22050000D01*
X46800000Y-25050000D02*
X44600000Y-25050000D01*
X54507548Y-32757548D02*
X46800000Y-25050000D01*
X49777452Y-52953513D02*
X49777452Y-52372548D01*
X49777452Y-52372548D02*
X54950000Y-47200000D01*
X55992158Y-34092158D02*
X54507548Y-34092158D01*
X57100000Y-35200000D02*
X55992158Y-34092158D01*
X57100000Y-37400000D02*
X57100000Y-35200000D01*
X55650000Y-38850000D02*
X57100000Y-37400000D01*
X55650000Y-41800000D02*
X55650000Y-38850000D01*
X54950000Y-42500000D02*
X55650000Y-41800000D01*
X54950000Y-47200000D02*
X54950000Y-42500000D01*
X30777452Y-54296487D02*
X32096487Y-54296487D01*
X49777452Y-54822548D02*
X49777452Y-52953513D01*
X48350000Y-56250000D02*
X49777452Y-54822548D01*
X44750000Y-56250000D02*
X48350000Y-56250000D01*
X44700000Y-56200000D02*
X44750000Y-56250000D01*
X34000000Y-56200000D02*
X34100000Y-56200000D01*
X34100000Y-56200000D02*
X44700000Y-56200000D01*
X32096487Y-54296487D02*
X34000000Y-56200000D01*
X23407548Y-36557842D02*
X23407548Y-44157548D01*
X28450000Y-55000000D02*
X30073939Y-55000000D01*
X26750000Y-53300000D02*
X28450000Y-55000000D01*
X26750000Y-50150000D02*
X26750000Y-53300000D01*
X24100000Y-47500000D02*
X26750000Y-50150000D01*
X24100000Y-44850000D02*
X24100000Y-47500000D01*
X23407548Y-44157548D02*
X24100000Y-44850000D01*
X30073939Y-55000000D02*
X30777452Y-54296487D01*
X38130000Y-24000000D02*
X36200000Y-24000000D01*
X36200000Y-24000000D02*
X35200000Y-25000000D01*
X35200000Y-25000000D02*
X32400000Y-25000000D01*
X32400000Y-25000000D02*
X30400000Y-27000000D01*
X30400000Y-27000000D02*
X29650000Y-27000000D01*
X29650000Y-27000000D02*
X24500000Y-32150000D01*
X24500000Y-32150000D02*
X23300000Y-32150000D01*
X23300000Y-32150000D02*
X22400000Y-33050000D01*
X22400000Y-33050000D02*
X22400000Y-35550294D01*
X22400000Y-35550294D02*
X23407548Y-36557842D01*
D19*
X49777452Y-52953513D02*
X49777452Y-53127452D01*
X49777452Y-52953513D02*
X49777452Y-52872548D01*
D18*
X28722548Y-52803513D02*
X28722548Y-50222548D01*
X26116742Y-47616742D02*
X26116742Y-45724833D01*
X28722548Y-50222548D02*
X26116742Y-47616742D01*
X55292452Y-36507842D02*
X55292452Y-38057548D01*
X53266742Y-40083258D02*
X53266742Y-43625167D01*
X55292452Y-38057548D02*
X53266742Y-40083258D01*
X47722548Y-54446487D02*
X40528513Y-54446487D01*
X40528513Y-54446487D02*
X40375000Y-54600000D01*
X24192452Y-34142158D02*
X24907842Y-34142158D01*
X24907842Y-34142158D02*
X29797520Y-29252480D01*
X29797520Y-29252480D02*
X30270758Y-29252480D01*
X40670000Y-24000000D02*
X41850000Y-24000000D01*
X41850000Y-24000000D02*
X46047520Y-28197520D01*
X46047520Y-28197520D02*
X46870758Y-28197520D01*
X36450000Y-33415000D02*
X37765000Y-33415000D01*
X34790000Y-43810000D02*
X32250000Y-43810000D01*
X38150000Y-40450000D02*
X34790000Y-43810000D01*
X38150000Y-33800000D02*
X38150000Y-40450000D01*
X37765000Y-33415000D02*
X38150000Y-33800000D01*
X45160000Y-32840000D02*
X46390000Y-32840000D01*
X44505000Y-35955000D02*
X41850000Y-35955000D01*
X45200000Y-36650000D02*
X44505000Y-35955000D01*
X46390000Y-32840000D02*
X47700000Y-34150000D01*
X47525000Y-43375000D02*
X47525000Y-43325000D01*
X47525000Y-43325000D02*
X45160000Y-40960000D01*
X45160000Y-40960000D02*
X45160000Y-40460000D01*
X47750000Y-50650000D02*
X49600000Y-48800000D01*
X49600000Y-48800000D02*
X49700000Y-48800000D01*
X49700000Y-48800000D02*
X50750000Y-47750000D01*
X50750000Y-47750000D02*
X50750000Y-46650000D01*
X44150000Y-52050000D02*
X42100000Y-50000000D01*
X46550000Y-52050000D02*
X47750000Y-50850000D01*
X44150000Y-52050000D02*
X46550000Y-52050000D01*
X47750000Y-50850000D02*
X47750000Y-50650000D01*
X50750000Y-46650000D02*
X50750000Y-45700000D01*
X49850000Y-45700000D02*
X50750000Y-45700000D01*
X47500000Y-43350000D02*
X47525000Y-43375000D01*
X47525000Y-43375000D02*
X49850000Y-45700000D01*
X32250000Y-36190000D02*
X30860000Y-36190000D01*
X41490000Y-40460000D02*
X39350000Y-42600000D01*
X39350000Y-42600000D02*
X38100000Y-42600000D01*
X38100000Y-42600000D02*
X34099998Y-46600002D01*
X34099998Y-46600002D02*
X34099998Y-47900002D01*
X34099998Y-47900002D02*
X33500000Y-48500000D01*
X33500000Y-48500000D02*
X30850000Y-48500000D01*
X30850000Y-48500000D02*
X29200000Y-46850000D01*
X41490000Y-40460000D02*
X45160000Y-40460000D01*
X29200000Y-43250000D02*
X29200000Y-46850000D01*
X26550000Y-40600000D02*
X29200000Y-43250000D01*
X26550000Y-39300000D02*
X26550000Y-40600000D01*
X27650000Y-38200000D02*
X26550000Y-39300000D01*
X30200000Y-38200000D02*
X27650000Y-38200000D01*
X30500000Y-37900000D02*
X30200000Y-38200000D01*
X30500000Y-36550000D02*
X30500000Y-37900000D01*
X30860000Y-36190000D02*
X30500000Y-36550000D01*
X41010000Y-50000000D02*
X42100000Y-50000000D01*
X38050000Y-51075000D02*
X39935000Y-51075000D01*
X39935000Y-51075000D02*
X41010000Y-50000000D01*
X41775000Y-38200000D02*
X42900000Y-38200000D01*
X42900000Y-38200000D02*
X45160000Y-40460000D01*
X41850000Y-35955000D02*
X41850000Y-38125000D01*
X41850000Y-38125000D02*
X41775000Y-38200000D01*
X32250000Y-38730000D02*
X33470000Y-38730000D01*
X35065000Y-34685000D02*
X36450000Y-34685000D01*
X34450000Y-35300000D02*
X35065000Y-34685000D01*
X34450000Y-37750000D02*
X34450000Y-35300000D01*
X33470000Y-38730000D02*
X34450000Y-37750000D01*
X26450000Y-37400000D02*
X26750000Y-37100000D01*
X25483258Y-43775167D02*
X25483258Y-38366742D01*
X26450000Y-37400000D02*
X25483258Y-38366742D01*
X30100000Y-35650000D02*
X30100000Y-34850000D01*
X28650000Y-37100000D02*
X30100000Y-35650000D01*
X26750000Y-37100000D02*
X28650000Y-37100000D01*
X32250000Y-33650000D02*
X31300000Y-33650000D01*
X31300000Y-33650000D02*
X30100000Y-34850000D01*
X30100000Y-34850000D02*
X30000000Y-34950000D01*
X33750000Y-32150000D02*
X34550000Y-32150000D01*
X40200000Y-32200000D02*
X40200000Y-37550000D01*
X39250000Y-31250000D02*
X40200000Y-32200000D01*
X35450000Y-31250000D02*
X39250000Y-31250000D01*
X34550000Y-32150000D02*
X35450000Y-31250000D01*
X40200000Y-37550000D02*
X39725000Y-38200000D01*
X31929242Y-28047520D02*
X32447520Y-28047520D01*
X33755000Y-32145000D02*
X33750000Y-32150000D01*
X33750000Y-32150000D02*
X32250000Y-33650000D01*
X39725000Y-38200000D02*
X39725000Y-38025000D01*
X39725000Y-38025000D02*
X39250000Y-37550000D01*
X39250000Y-37550000D02*
X39250000Y-33600000D01*
X39250000Y-33600000D02*
X37795000Y-32145000D01*
X37795000Y-32145000D02*
X36450000Y-32145000D01*
X39725000Y-38025000D02*
X40200000Y-37550000D01*
X32250000Y-33650000D02*
X32950000Y-33650000D01*
X51675000Y-36500000D02*
X51675000Y-34525000D01*
X51675000Y-34525000D02*
X52100000Y-34100000D01*
X52300000Y-38500000D02*
X52300000Y-37125000D01*
X52300000Y-37125000D02*
X51675000Y-36500000D01*
X31700000Y-52450000D02*
X35650000Y-52450000D01*
X26725167Y-43775167D02*
X27950000Y-45000000D01*
X27950000Y-45000000D02*
X27950000Y-48250000D01*
X27950000Y-48250000D02*
X29650000Y-49950000D01*
X29650000Y-49950000D02*
X29650000Y-50850000D01*
X29650000Y-50850000D02*
X31250000Y-52450000D01*
X31250000Y-52450000D02*
X31700000Y-52450000D01*
X25483258Y-43775167D02*
X26725167Y-43775167D01*
X35650000Y-52450000D02*
X37800000Y-54600000D01*
X37800000Y-54600000D02*
X38325000Y-54600000D01*
X48529242Y-29402480D02*
X48497520Y-29402480D01*
X48497520Y-29402480D02*
X47700000Y-30200000D01*
X33202480Y-28047520D02*
X31929242Y-28047520D01*
X35400000Y-25850000D02*
X33202480Y-28047520D01*
X42100000Y-25850000D02*
X35400000Y-25850000D01*
X46450000Y-30200000D02*
X44050000Y-27800000D01*
X44050000Y-27800000D02*
X42100000Y-25850000D01*
X47700000Y-30200000D02*
X46450000Y-30200000D01*
X38325000Y-54600000D02*
X38325000Y-53675000D01*
X38325000Y-53675000D02*
X39000000Y-53000000D01*
X39000000Y-53000000D02*
X46850000Y-53000000D01*
X46850000Y-53000000D02*
X49550000Y-50300000D01*
X49550000Y-50300000D02*
X50200000Y-50300000D01*
X50200000Y-50300000D02*
X52633258Y-47866742D01*
X52633258Y-47866742D02*
X52633258Y-45574833D01*
X52633258Y-45574833D02*
X52424833Y-45574833D01*
X52424833Y-45574833D02*
X51550000Y-44700000D01*
X51550000Y-44700000D02*
X51550000Y-42250000D01*
X51550000Y-42250000D02*
X52300000Y-41500000D01*
X52300000Y-41500000D02*
X52300000Y-38500000D01*
X52300000Y-38500000D02*
X52300000Y-38350000D01*
X52100000Y-34100000D02*
X52100000Y-32150000D01*
X52100000Y-32150000D02*
X49352480Y-29402480D01*
X49352480Y-29402480D02*
X48529242Y-29402480D01*
X36450000Y-35955000D02*
X36450000Y-39150000D01*
X34330000Y-41270000D02*
X32250000Y-41270000D01*
X36450000Y-39150000D02*
X34330000Y-41270000D01*
X28200000Y-39900000D02*
X28200000Y-40000000D01*
X33125000Y-29025000D02*
X28200000Y-33950000D01*
X28200000Y-33950000D02*
X28200000Y-35050000D01*
X34925000Y-29025000D02*
X33125000Y-29025000D01*
X30450000Y-46350000D02*
X32250000Y-46350000D01*
X30250000Y-46150000D02*
X30450000Y-46350000D01*
X30250000Y-42050000D02*
X30250000Y-46150000D01*
X28200000Y-40000000D02*
X30250000Y-42050000D01*
X41850000Y-32145000D02*
X41850000Y-31150000D01*
X36200000Y-30300000D02*
X34925000Y-29025000D01*
X34925000Y-29025000D02*
X34900000Y-29000000D01*
X41000000Y-30300000D02*
X36200000Y-30300000D01*
X41850000Y-31150000D02*
X41000000Y-30300000D01*
X39400000Y-44400000D02*
X43030000Y-44400000D01*
X43030000Y-44400000D02*
X43550000Y-44920000D01*
X39400000Y-46300000D02*
X39400000Y-47675000D01*
X39400000Y-47675000D02*
X38050000Y-49025000D01*
X41850000Y-33415000D02*
X43035000Y-33415000D01*
X48700000Y-31300000D02*
X46650000Y-31300000D01*
X46650000Y-31300000D02*
X46450000Y-31100000D01*
X46450000Y-31100000D02*
X45950000Y-31100000D01*
X45950000Y-31100000D02*
X45700000Y-30850000D01*
X45700000Y-30850000D02*
X44550000Y-30850000D01*
X44550000Y-30850000D02*
X43400000Y-32000000D01*
X43400000Y-32000000D02*
X43400000Y-33050000D01*
X43400000Y-33050000D02*
X43035000Y-33415000D01*
X48700000Y-31300000D02*
X50240000Y-32840000D01*
X50240000Y-40460000D02*
X50240000Y-38890000D01*
X49625000Y-38275000D02*
X49625000Y-36500000D01*
X50240000Y-38890000D02*
X49625000Y-38275000D01*
X50240000Y-32840000D02*
X50240000Y-33560000D01*
X50240000Y-33560000D02*
X49625000Y-34175000D01*
X49625000Y-34175000D02*
X49625000Y-36500000D01*
X49625000Y-40245000D02*
X49640000Y-40260000D01*
X49625000Y-32655000D02*
X49640000Y-32640000D01*
X46090000Y-50000000D02*
X46090000Y-47335000D01*
X46090000Y-47335000D02*
X46150000Y-47275000D01*
X43785000Y-34685000D02*
X45735000Y-34685000D01*
X48050000Y-41450000D02*
X49750000Y-43150000D01*
X48600000Y-46900000D02*
X46925000Y-45225000D01*
X46150000Y-45225000D02*
X46925000Y-45225000D01*
X43785000Y-34685000D02*
X41850000Y-34685000D01*
X47800000Y-38700000D02*
X47800000Y-41450000D01*
X47800000Y-41450000D02*
X48050000Y-41450000D01*
X47800000Y-36750000D02*
X47800000Y-38700000D01*
X45735000Y-34685000D02*
X47800000Y-36750000D01*
M02*
