M48
;DRILL file {KiCad 4.0.7} date Friday, July 23, 2021 'PMt' 11:16:13 PM
;FORMAT={-:-/ absolute / inch / decimal}
FMAT,2
INCH,TZ
T1C0.030
T2C0.031
%
G90
G05
M72
T1
X0.9216Y-1.4393
X0.9525Y-1.3442
X1.1308Y-2.0789
X1.2117Y-2.1377
X1.5012Y-0.9449
X1.6012Y-0.9449
X1.6146Y-1.9685
X1.7146Y-1.7685
X1.778Y-1.2929
X1.778Y-1.5929
X1.8146Y-1.9685
X1.8788Y-2.1436
X1.9597Y-2.0848
X1.978Y-1.2929
X1.978Y-1.5929
X2.146Y-1.3422
X2.1769Y-1.4373
T2
X1.1102Y-1.3799
X1.1102Y-1.5709
X1.2697Y-1.3248
X1.2697Y-1.4248
X1.2697Y-1.5248
X1.2697Y-1.6248
X1.2697Y-1.7248
X1.2697Y-1.8248
X1.3701Y-1.9941
X1.372Y-2.1417
X1.7795Y-1.4429
X1.878Y-1.3445
X1.9134Y-1.8465
X1.9587Y-1.6988
T0
M30
