G04 #@! TF.FileFunction,Copper,L1,Top,Signal*
%FSLAX46Y46*%
G04 Gerber Fmt 4.6, Leading zero omitted, Abs format (unit mm)*
G04 Created by KiCad (PCBNEW 4.0.7) date Friday, July 23, 2021 'PMt' 11:18:56 PM*
%MOMM*%
%LPD*%
G01*
G04 APERTURE LIST*
%ADD10C,0.100000*%
%ADD11C,2.100000*%
%ADD12R,2.100000X2.100000*%
%ADD13C,2.200000*%
%ADD14C,0.500000*%
G04 APERTURE END LIST*
D10*
D11*
X30777452Y-54296487D03*
X28722548Y-52803513D03*
X54507548Y-34092158D03*
X55292452Y-36507842D03*
X49777452Y-52953513D03*
X47722548Y-54446487D03*
X23407548Y-36557842D03*
X24192452Y-34142158D03*
X38130000Y-24000000D03*
X40670000Y-24000000D03*
D12*
X32250000Y-43810000D03*
X32250000Y-36190000D03*
X32250000Y-38730000D03*
X32250000Y-33650000D03*
X32250000Y-41270000D03*
X32250000Y-46350000D03*
D13*
X46090000Y-50000000D03*
X41010000Y-50000000D03*
X43550000Y-44920000D03*
X50240000Y-40460000D03*
X45160000Y-40460000D03*
X45160000Y-32840000D03*
X50240000Y-32840000D03*
D11*
X34800000Y-50650000D03*
X34850000Y-54400000D03*
X45200000Y-36650000D03*
X47700000Y-34150000D03*
X28200000Y-35050000D03*
X28200000Y-39900000D03*
X49750000Y-43150000D03*
X48600000Y-46900000D03*
D14*
X34800000Y-51150000D02*
X34800000Y-50650000D01*
X34800000Y-54350000D02*
X34800000Y-51150000D01*
X34800000Y-51150000D02*
X34800000Y-50900000D01*
X34850000Y-54400000D02*
X34800000Y-54350000D01*
X47700000Y-34150000D02*
X45200000Y-36650000D01*
X28200000Y-35050000D02*
X28200000Y-39900000D01*
X49750000Y-43150000D02*
X48600000Y-44300000D01*
X48600000Y-44300000D02*
X48600000Y-46900000D01*
M02*
